<svg width="24" height="24" viewBox="0 0 24 24" fill="none" xmlns="http://www.w3.org/2000/svg">
<path d="M8.62891 16.7254L10.9539 18.5254C11.3289 18.8254 11.8539 18.9754 12.3789 18.9754H15.2289C16.2039 18.9754 17.0289 18.3004 17.3289 17.4004L19.1289 11.9254C19.4289 11.1754 19.1289 10.3504 18.3789 10.0504C18.1539 9.97536 17.9289 9.90036 17.7039 9.97536H14.7039C14.2539 9.97536 13.9539 9.67536 13.9539 9.22536C13.9539 9.15036 13.9539 9.15036 13.9539 9.07536L14.3289 6.67536C14.4789 5.92536 14.0289 5.25036 13.3539 5.02536C12.7539 4.80036 12.0789 5.02536 11.7039 5.55036L8.62891 10.1254" stroke="#25A765" stroke-miterlimit="10"/>
<path d="M4.80273 16.7252V9.3752C4.80273 8.3252 5.25273 7.9502 6.30273 7.9502H7.05273C8.10273 7.9502 8.55273 8.3252 8.55273 9.3752V16.7252C8.55273 17.7752 8.10273 18.1502 7.05273 18.1502H6.30273C5.25273 18.1502 4.80273 17.7752 4.80273 16.7252Z" stroke="#25A765" stroke-linecap="round" stroke-linejoin="round"/>
</svg>
