<svg width="32" height="33" viewBox="0 0 32 33" fill="none" xmlns="http://www.w3.org/2000/svg">
<path d="M9 7.42188H23C24.1 7.42188 25 8.32187 25 9.42188V23.4219C25 24.5219 24.1 25.4219 23 25.4219H9C7.9 25.4219 7 24.5219 7 23.4219V9.42188C7 8.32187 7.9 7.42188 9 7.42188Z" stroke="#505050" stroke-linecap="round" stroke-linejoin="round"/>
<path d="M12.5 14.4219C13.3284 14.4219 14 13.7503 14 12.9219C14 12.0934 13.3284 11.4219 12.5 11.4219C11.6716 11.4219 11 12.0934 11 12.9219C11 13.7503 11.6716 14.4219 12.5 14.4219Z" stroke="#505050" stroke-linecap="round" stroke-linejoin="round"/>
<path d="M25 19.4219L20 14.4219L9 25.4219" stroke="#505050" stroke-linecap="round" stroke-linejoin="round"/>
</svg>
