<svg width="22" height="22" viewBox="0 0 22 22" fill="none" xmlns="http://www.w3.org/2000/svg">
<path d="M10.9999 3.30001C15.2349 3.30001 18.6999 6.76501 18.6999 11C18.6999 15.235 15.2349 18.7 10.9999 18.7C6.76495 18.7 3.29995 15.235 3.29995 11C3.29995 6.76501 6.76495 3.30001 10.9999 3.30001ZM10.9999 2.20001C6.15995 2.20001 2.19995 6.16001 2.19995 11C2.19995 15.84 6.15995 19.8 10.9999 19.8C15.8399 19.8 19.7999 15.84 19.7999 11C19.7999 6.16001 15.8399 2.20001 10.9999 2.20001Z" fill="#25A765"/>
<path d="M15.7299 8.47L9.73493 15.07L6.92993 12.21" stroke="#25A765" stroke-miterlimit="10"/>
</svg>
