<svg width="30" height="30" viewBox="0 0 30 30" fill="none" xmlns="http://www.w3.org/2000/svg">
<path d="M29 15C29 7.26801 22.732 1 15 1C7.26801 1 1 7.26801 1 15C1 22.732 7.26801 29 15 29C22.732 29 29 22.732 29 15Z" fill="white"/>
<path d="M28.5625 15C28.5625 7.50964 22.4904 1.4375 15 1.4375C7.50964 1.4375 1.4375 7.50964 1.4375 15C1.4375 22.4904 7.50964 28.5625 15 28.5625C22.4904 28.5625 28.5625 22.4904 28.5625 15Z" stroke="#E5E5EC"/>
<path d="M17 11L13 15L17 19" stroke="#111111" stroke-width="2" stroke-miterlimit="10"/>
</svg>
