<svg width="32" height="33" viewBox="0 0 32 33" fill="none" xmlns="http://www.w3.org/2000/svg">
<path d="M25.0831 12.7567L23.4327 26.5101H8.57904L6.92863 12.7567H25.0831ZM25.0831 11.8398H6.92863C6.3785 11.8398 5.92005 12.2983 6.01174 12.8484L7.66215 26.6018C7.75384 27.0603 8.12059 27.427 8.57904 27.427H23.4327C23.8911 27.427 24.2579 27.0603 24.3496 26.6018L26 12.8484C26 12.2983 25.6332 11.8398 25.0831 11.8398Z" fill="#505050"/>
<path d="M11.4214 11.8401V10.0063C11.4214 7.43904 13.4386 5.42188 16.0058 5.42188C18.5731 5.42188 20.5903 7.43904 20.5903 10.0063V11.8401" stroke="#505050" stroke-miterlimit="10" stroke-linecap="round" stroke-linejoin="round"/>
<path d="M12.3383 15.5078C11.7881 15.5078 11.4214 15.8746 11.4214 16.4247C11.4214 16.9748 11.7881 17.3416 12.3383 17.3416C12.8884 17.3416 13.2552 16.9748 13.2552 16.4247C13.2552 15.8746 12.8884 15.5078 12.3383 15.5078Z" fill="#505050"/>
<path d="M19.6737 15.5078C19.1236 15.5078 18.7568 15.8746 18.7568 16.4247C18.7568 16.9748 19.1236 17.3416 19.6737 17.3416C20.2239 17.3416 20.5906 16.9748 20.5906 16.4247C20.5906 15.8746 20.2239 15.5078 19.6737 15.5078Z" fill="#505050"/>
</svg>
