<svg width="62" height="89" viewBox="0 0 62 89" fill="none" xmlns="http://www.w3.org/2000/svg">
<path d="M31.0018 13.5897C26.9306 13.5897 22.8992 14.3859 19.1379 15.9327C15.3766 17.4796 11.959 19.7468 9.08021 22.6051C6.20143 25.4633 3.91785 28.8565 2.35987 32.5909C0.801881 36.3253 0 40.3279 0 44.37V58.2197C0 62.2618 0.801881 66.2644 2.35987 69.9988C3.91785 73.7333 6.20143 77.1265 9.08021 79.9847C11.959 82.8429 15.3766 85.1102 19.1379 86.657C22.8992 88.2039 26.9306 89 31.0018 89C39.2233 88.9991 47.1079 85.7558 52.9211 79.9834C58.7342 74.2111 62 66.3825 62 58.2197V44.3679C61.9994 36.2054 58.7334 28.3774 52.9203 22.6056C47.1072 16.8337 39.223 13.5907 31.0018 13.5897ZM44.8673 58.1724C44.8996 60.0003 44.5648 61.8162 43.8826 63.5143C43.2004 65.2123 42.1844 66.7585 40.8939 68.0625C39.6034 69.3665 38.0642 70.4022 36.3661 71.1092C34.6681 71.8162 32.8452 72.1803 31.0039 72.1803C29.1626 72.1803 27.3397 71.8162 25.6417 71.1092C23.9437 70.4022 22.4045 69.3665 21.1139 68.0625C19.8234 66.7585 18.8074 65.2123 18.1252 63.5143C17.443 61.8162 17.1083 60.0003 17.1406 58.1724V44.4131C17.1083 42.5852 17.443 40.7693 18.1252 39.0712C18.8074 37.3732 19.8234 35.827 21.1139 34.523C22.4045 33.219 23.9437 32.1833 25.6417 31.4763C27.3397 30.7693 29.1626 30.4052 31.0039 30.4052C32.8452 30.4052 34.6681 30.7693 36.3661 31.4763C38.0642 32.1833 39.6034 33.219 40.8939 34.523C42.1844 35.827 43.2004 37.3732 43.8826 39.0712C44.5648 40.7693 44.8996 42.5852 44.8673 44.4131V58.1724Z" fill="#25A765"/>
<path d="M21.7281 8.09427C21.941 8.1706 22.1332 8.29508 22.2893 8.45787C22.4454 8.62067 22.5613 8.81731 22.6276 9.03223C22.694 9.24715 22.7091 9.47446 22.6717 9.69616C22.6343 9.91787 22.5454 10.1279 22.4121 10.3096L22.4178 10.3258C21.7872 10.713 21.2406 11.2208 20.8096 11.8198C20.3787 12.4188 20.0721 13.097 19.9078 13.8147C27.0767 11.2478 34.9236 11.2478 42.0926 13.8147C41.9287 13.097 41.6224 12.4188 41.1917 11.8197C40.761 11.2207 40.2145 10.7129 39.584 10.3258L39.5882 10.3096C39.4548 10.1278 39.3659 9.91772 39.3285 9.6959C39.2911 9.47409 39.3063 9.24667 39.3728 9.03169C39.4393 8.8167 39.5554 8.62007 39.7117 8.45736C39.8681 8.29464 40.0605 8.17032 40.2737 8.09427C40.8103 7.94486 41.2838 7.62693 41.6232 7.18804C41.9627 6.74915 42.1498 6.21292 42.1567 5.65961C42.1635 5.1063 41.9897 4.56565 41.6612 4.11862C41.3328 3.67158 40.8673 3.34219 40.3345 3.17973C39.8017 3.01727 39.2303 3.03051 38.7057 3.21743C38.1812 3.40436 37.7317 3.75492 37.4246 4.21667C37.1174 4.67841 36.9691 5.22651 37.002 5.7789C37.0348 6.33129 37.2469 6.85827 37.6065 7.28098H37.6009V7.28523C37.734 7.4672 37.8226 7.67739 37.8598 7.89922C37.897 8.12106 37.8818 8.34845 37.8154 8.56344C37.7489 8.77843 37.633 8.97513 37.4768 9.13801C37.3206 9.30089 37.1284 9.42548 36.9154 9.50196L36.9097 9.52032C36.1736 9.4942 35.4397 9.6142 34.751 9.8733C34.1091 9.45371 33.4025 9.14108 32.6591 8.94777V8.92237C32.4289 8.75145 32.2421 8.52961 32.1134 8.27446C31.9847 8.01932 31.9177 7.7379 31.9177 7.45254C31.9177 7.16719 31.9847 6.88577 32.1134 6.63062C32.2421 6.37547 32.4289 6.15363 32.6591 5.98271V5.97847H32.6512C33.2454 5.59889 33.6998 5.03849 33.9465 4.38112C34.1931 3.72374 34.2188 3.00475 34.0195 2.33172C33.8203 1.65868 33.4069 1.0678 32.8412 0.647477C32.2755 0.227155 31.588 0 30.8814 0C30.1749 0 29.4873 0.227155 28.9216 0.647477C28.356 1.0678 27.9426 1.65868 27.7433 2.33172C27.5441 3.00475 27.5697 3.72374 27.8164 4.38112C28.063 5.03849 28.5174 5.59889 29.1116 5.97847C29.3418 6.14939 29.5286 6.37123 29.6573 6.62637C29.786 6.88152 29.853 7.16294 29.853 7.4483C29.853 7.73365 29.786 8.01507 29.6573 8.27022C29.5286 8.52537 29.3418 8.74721 29.1116 8.91813V8.93931C28.402 9.12562 27.7258 9.42023 27.1072 9.81259C26.4606 9.59113 25.7784 9.49013 25.0949 9.51467L25.0892 9.49632C24.8759 9.4202 24.6834 9.29578 24.527 9.13295C24.3705 8.97011 24.2544 8.77333 24.1879 8.5582C24.1214 8.34308 24.1063 8.11552 24.1437 7.89358C24.1812 7.67164 24.2702 7.4614 24.4038 7.27956V7.27534H24.3981C24.7581 6.85246 24.9705 6.32519 25.0034 5.77246C25.0364 5.21973 24.8881 4.67126 24.5809 4.20917C24.2736 3.74708 23.8239 3.39622 23.299 3.20912C22.7741 3.02201 22.2023 3.00872 21.6692 3.17124C21.1361 3.33376 20.6703 3.66334 20.3416 4.11065C20.013 4.55796 19.839 5.09893 19.8459 5.65259C19.8528 6.20624 20.0401 6.7428 20.3798 7.18194C20.7194 7.62108 21.1932 7.93919 21.7302 8.08862L21.7281 8.09427Z" fill="#0B5932"/>
</svg>
