<svg width="70" height="34" viewBox="0 0 70 34" fill="none" xmlns="http://www.w3.org/2000/svg">
<path d="M11.8106 5.19141C10.2596 5.19141 8.7238 5.49555 7.29088 6.08649C5.85795 6.67742 4.55596 7.54357 3.45924 8.63547C2.36253 9.72738 1.49256 11.0237 0.899027 12.4503C0.305489 13.8769 0 15.406 0 16.9502V22.2411C0 23.7853 0.305489 25.3143 0.899027 26.741C1.49256 28.1676 2.36253 29.4639 3.45924 30.5558C4.55596 31.6477 5.85795 32.5139 7.29088 33.1048C8.7238 33.6957 10.2596 33.9999 11.8106 33.9999C14.9427 33.9995 17.9464 32.7605 20.1611 30.5553C22.3757 28.3502 23.6198 25.3595 23.6198 22.2411V16.9494C23.6196 13.8311 22.3754 10.8406 20.1608 8.63566C17.9462 6.43068 14.9426 5.19176 11.8106 5.19141ZM17.0929 22.223C17.1052 22.9213 16.9776 23.6151 16.7178 24.2637C16.4579 24.9124 16.0708 25.5031 15.5791 26.0013C15.0875 26.4994 14.5011 26.8951 13.8542 27.1652C13.2073 27.4353 12.5129 27.5744 11.8114 27.5744C11.1099 27.5744 10.4155 27.4353 9.76859 27.1652C9.1217 26.8951 8.53532 26.4994 8.04367 26.0013C7.55203 25.5031 7.16496 24.9124 6.90507 24.2637C6.64517 23.6151 6.51766 22.9213 6.52996 22.223V16.9666C6.51766 16.2684 6.64517 15.5746 6.90507 14.9259C7.16496 14.2772 7.55203 13.6866 8.04367 13.1884C8.53532 12.6903 9.1217 12.2946 9.76859 12.0245C10.4155 11.7544 11.1099 11.6153 11.8114 11.6153C12.5129 11.6153 13.2073 11.7544 13.8542 12.0245C14.5011 12.2946 15.0875 12.6903 15.5791 13.1884C16.0708 13.6866 16.4579 14.2772 16.7178 14.9259C16.9776 15.5746 17.1052 16.2684 17.0929 16.9666V22.223Z" fill="white"/>
<path d="M8.27767 3.0922C8.3588 3.12136 8.432 3.16891 8.49147 3.2311C8.55095 3.29329 8.59508 3.36841 8.62036 3.45052C8.64564 3.53262 8.65138 3.61946 8.63714 3.70416C8.62289 3.78885 8.58903 3.86908 8.53826 3.9385L8.54042 3.9447C8.3002 4.0926 8.09194 4.28662 7.92777 4.51545C7.76361 4.74427 7.64681 5.00334 7.5842 5.27755C10.3153 4.29693 13.3047 4.29693 16.0358 5.27755C15.9734 5.00334 15.8567 4.74425 15.6926 4.51541C15.5286 4.28657 15.3203 4.09256 15.0801 3.9447L15.0818 3.9385C15.0309 3.86907 14.9971 3.7888 14.9828 3.70406C14.9686 3.61932 14.9744 3.53244 14.9997 3.45031C15.025 3.36818 15.0692 3.29307 15.1288 3.2309C15.1884 3.16874 15.2617 3.12125 15.3429 3.0922C15.5473 3.03512 15.7277 2.91366 15.857 2.746C15.9863 2.57833 16.0576 2.37348 16.0602 2.1621C16.0629 1.95072 15.9966 1.74419 15.8715 1.57341C15.7464 1.40263 15.569 1.27679 15.3661 1.21473C15.1631 1.15267 14.9454 1.15772 14.7456 1.22913C14.5457 1.30054 14.3745 1.43447 14.2575 1.61086C14.1405 1.78726 14.084 1.99665 14.0965 2.20767C14.109 2.4187 14.1898 2.62002 14.3268 2.7815H14.3246V2.78312C14.3753 2.85264 14.4091 2.93294 14.4233 3.01769C14.4375 3.10243 14.4317 3.1893 14.4064 3.27143C14.381 3.35356 14.3369 3.42871 14.2774 3.49093C14.2179 3.55315 14.1447 3.60075 14.0635 3.62997L14.0613 3.63698C13.7809 3.627 13.5013 3.67285 13.2389 3.77183C12.9944 3.61153 12.7252 3.4921 12.442 3.41826V3.40855C12.3543 3.34326 12.2831 3.25851 12.2341 3.16104C12.1851 3.06356 12.1595 2.95605 12.1595 2.84704C12.1595 2.73803 12.1851 2.63052 12.2341 2.53305C12.2831 2.43558 12.3543 2.35083 12.442 2.28553V2.28391H12.439C12.6654 2.13891 12.8385 1.92482 12.9325 1.67369C13.0264 1.42256 13.0362 1.14788 12.9603 0.89077C12.8844 0.633655 12.7269 0.407923 12.5114 0.247351C12.2959 0.0867786 12.0339 0 11.7648 0C11.4956 0 11.2337 0.0867786 11.0182 0.247351C10.8027 0.407923 10.6452 0.633655 10.5693 0.89077C10.4934 1.14788 10.5031 1.42256 10.5971 1.67369C10.6911 1.92482 10.8642 2.13891 11.0905 2.28391C11.1782 2.34921 11.2494 2.43396 11.2984 2.53143C11.3475 2.6289 11.373 2.73641 11.373 2.84542C11.373 2.95443 11.3475 3.06194 11.2984 3.15941C11.2494 3.25689 11.1782 3.34163 11.0905 3.40693V3.41502C10.8202 3.4862 10.5626 3.59874 10.3269 3.74864C10.0806 3.66403 9.8207 3.62545 9.56031 3.63482L9.55814 3.62781C9.47688 3.59873 9.40354 3.5512 9.34394 3.489C9.28434 3.42679 9.24012 3.35162 9.21478 3.26943C9.18943 3.18725 9.18367 3.10032 9.19794 3.01553C9.21222 2.93074 9.24613 2.85043 9.297 2.78096V2.77935H9.29484C9.43199 2.6178 9.5129 2.41637 9.52546 2.20521C9.53801 1.99406 9.48153 1.78453 9.36448 1.608C9.24743 1.43147 9.0761 1.29744 8.87614 1.22596C8.67617 1.15448 8.45834 1.1494 8.25524 1.21149C8.05214 1.27357 7.8747 1.39948 7.74948 1.57036C7.62427 1.74124 7.55801 1.94791 7.56062 2.15942C7.56324 2.37093 7.63459 2.57591 7.764 2.74367C7.89341 2.91143 8.07391 3.03295 8.27848 3.09004L8.27767 3.0922Z" fill="white"/>
<path d="M29.9595 10.4984C29.96 10.2603 30.0049 10.0245 30.0919 9.80291C30.1784 9.5761 30.3081 9.36827 30.4736 9.19093C30.6437 9.00949 30.8464 8.86178 31.0711 8.75552C31.3171 8.64064 31.5859 8.58341 31.8573 8.58816H34.7205C34.9905 8.58439 35.2578 8.64159 35.5027 8.75552C35.729 8.86114 35.9331 9.0089 36.1042 9.19093C36.2699 9.36824 36.3998 9.57607 36.4866 9.80291C36.573 10.0246 36.6177 10.2604 36.6183 10.4984V11.1144C36.6198 11.3468 36.5811 11.5777 36.504 11.797C36.4288 12.0094 36.3109 12.2041 36.1575 12.369C35.9941 12.5411 35.7965 12.6771 35.5775 12.7682C35.3196 12.8732 35.0429 12.9241 34.7646 12.9177H34.0094V14.734H36.3459C36.4824 14.7307 36.6185 14.7469 36.7504 14.7822C36.841 14.8071 36.9248 14.8522 36.9955 14.9143C37.0519 14.9669 37.0929 15.034 37.1141 15.1083C37.1351 15.1872 37.1454 15.2686 37.1447 15.3503C37.1442 15.423 37.1339 15.4953 37.1141 15.5652C37.093 15.6396 37.052 15.7067 36.9955 15.7593C36.9245 15.8219 36.8409 15.8685 36.7504 15.8959C36.6192 15.9347 36.4827 15.9526 36.3459 15.9487H30.2408C30.1042 15.9526 29.9679 15.9348 29.8369 15.8959C29.7463 15.8687 29.6627 15.8221 29.5918 15.7593C29.5351 15.7068 29.494 15.6397 29.4729 15.5652C29.453 15.4953 29.4427 15.423 29.4423 15.3503C29.4416 15.2686 29.4519 15.1872 29.4729 15.1083C29.494 15.0339 29.5351 14.9667 29.5918 14.9143C29.6623 14.852 29.7462 14.8068 29.8369 14.7822C29.9686 14.7469 30.1045 14.7306 30.2408 14.734H32.5859V12.9193H31.822C31.5437 12.9256 31.2671 12.8747 31.0092 12.7697C30.7951 12.6813 30.6018 12.5491 30.4415 12.3816C30.2813 12.2141 30.1576 12.015 30.0784 11.797C29.9984 11.5784 29.9581 11.3472 29.9595 11.1144V10.4984ZM31.383 10.8945C31.377 11.0947 31.4405 11.2908 31.5625 11.4494C31.6316 11.5292 31.7175 11.5927 31.8141 11.6352C31.9106 11.6776 32.0154 11.6981 32.1208 11.695H34.457C34.5624 11.6981 34.6672 11.6776 34.7637 11.6352C34.8603 11.5927 34.9462 11.5292 35.0153 11.4494C35.1373 11.2907 35.2009 11.0947 35.1954 10.8945V10.6132C35.2012 10.4089 35.1377 10.2087 35.0153 10.0452C34.943 9.96291 34.8524 9.8989 34.7509 9.85835C34.6493 9.81779 34.5396 9.80185 34.4307 9.81181H32.1468C32.038 9.8019 31.9284 9.81787 31.827 9.85842C31.7255 9.89897 31.635 9.96296 31.5628 10.0452C31.4404 10.2086 31.3771 10.4089 31.3833 10.6132L31.383 10.8945Z" fill="white"/>
<path d="M39.2623 9.30982C39.2587 9.18418 39.2795 9.05905 39.3236 8.94135C39.3584 8.85041 39.414 8.76891 39.4859 8.70337C39.553 8.64485 39.6327 8.6028 39.7188 8.58055C39.8974 8.53347 40.085 8.53347 40.2636 8.58055C40.3495 8.60281 40.429 8.64487 40.4958 8.70337C40.5679 8.76887 40.6237 8.85037 40.6588 8.94135C40.7028 9.05905 40.7236 9.18418 40.7201 9.30982V9.37123C40.7216 9.55937 40.7437 9.74678 40.786 9.93009C40.8224 10.0761 40.8866 10.2138 40.975 10.3354C41.076 10.4692 41.1941 10.5892 41.3261 10.6922C41.473 10.8097 41.6576 10.9475 41.8798 11.1055C42.0431 11.2122 42.1726 11.3635 42.253 11.5415C42.2822 11.6276 42.2899 11.7195 42.2754 11.8092C42.261 11.899 42.2247 11.9838 42.1699 12.0562C42.1124 12.1495 42.0323 12.2268 41.9371 12.2809C41.8466 12.3308 41.7461 12.3595 41.643 12.3648C41.575 12.3643 41.5072 12.3569 41.4407 12.3427C41.3676 12.3266 41.2987 12.2952 41.2385 12.2505C41.0342 12.0976 40.8294 11.9274 40.6239 11.7399C40.42 11.5534 40.2319 11.3503 40.0617 11.1325C39.9031 11.3561 39.7252 11.5652 39.5301 11.7574C39.342 11.9449 39.131 12.1078 38.902 12.242C38.8234 12.29 38.7392 12.3283 38.6513 12.3559C38.562 12.3852 38.4694 12.403 38.3756 12.409C38.2708 12.4137 38.1663 12.3956 38.0692 12.3559C37.9568 12.3091 37.8637 12.2254 37.8051 12.1185C37.7502 12.046 37.7139 11.9611 37.6994 11.8713C37.6849 11.7815 37.6926 11.6894 37.7217 11.6033C37.8018 11.4252 37.9314 11.2741 38.0949 11.1678C38.3117 11.0092 38.4932 10.8698 38.6397 10.7496C38.773 10.6434 38.8912 10.5194 38.9911 10.3812C39.0787 10.2553 39.144 10.1153 39.1842 9.96724C39.2298 9.78723 39.2563 9.60289 39.2632 9.41729L39.2623 9.30982ZM38.9727 16.1594C38.842 16.164 38.7114 16.1476 38.5858 16.1109C38.5042 16.0859 38.4304 16.0404 38.3713 15.9789C38.3224 15.9248 38.2905 15.8576 38.2794 15.7855C38.2673 15.7052 38.2614 15.6241 38.2619 15.5429V13.4742C38.2492 13.3657 38.2598 13.2558 38.2931 13.1518C38.3264 13.0478 38.3816 12.9522 38.4549 12.8714C38.5883 12.7612 38.7571 12.7033 38.9298 12.7087C39.099 12.7066 39.2647 12.7572 39.4041 12.8533C39.4822 12.9194 39.5442 13.0026 39.5852 13.0965C39.6263 13.1903 39.6453 13.2923 39.641 13.3947H43.4709C43.4733 13.2826 43.4972 13.1721 43.5414 13.0692C43.578 12.9869 43.6337 12.9144 43.7038 12.8579C43.7705 12.8057 43.8466 12.7668 43.928 12.7434C44.011 12.7201 44.0968 12.7084 44.1829 12.7087C44.2707 12.7079 44.358 12.7195 44.4425 12.7434C44.5212 12.7671 44.5933 12.8092 44.6526 12.8662C44.719 12.933 44.7687 13.0145 44.7976 13.1042C44.8356 13.2232 44.8534 13.3477 44.8503 13.4727V15.5413C44.8507 15.6225 44.8449 15.7036 44.8328 15.7839C44.8217 15.856 44.7897 15.9233 44.7409 15.9774C44.6818 16.0389 44.6079 16.0844 44.5264 16.1094C44.4009 16.1461 44.2704 16.1625 44.1397 16.1579L38.9727 16.1594ZM43.47 14.5219H39.6401V15.0319H43.47V14.5219ZM43.4262 9.26561C43.4128 9.15535 43.4253 9.04349 43.4625 8.93889C43.4997 8.83428 43.5607 8.73977 43.6406 8.66284C43.7833 8.55458 43.958 8.49729 44.137 8.5001C44.2275 8.49958 44.3177 8.51145 44.4051 8.53541C44.4883 8.55789 44.565 8.6 44.6287 8.65823C44.6985 8.72482 44.7526 8.80611 44.7871 8.89621C44.8312 9.01391 44.852 9.13904 44.8484 9.26468V11.6862C44.8525 11.8152 44.8317 11.9437 44.7871 12.0648C44.7527 12.1548 44.6986 12.2359 44.6287 12.3021C44.5651 12.3605 44.4884 12.4027 44.4051 12.425C44.2294 12.472 44.0445 12.472 43.8689 12.425C43.7844 12.4022 43.7062 12.3602 43.6406 12.3021C43.569 12.2374 43.5145 12.1559 43.4822 12.0648C43.4407 11.943 43.4213 11.8148 43.4249 11.6862L43.4262 9.26561Z" fill="white"/>
<path d="M47.6696 14.6185H48.6887C48.8252 14.6147 48.9615 14.6325 49.0925 14.6714C49.1832 14.6983 49.2669 14.7449 49.3376 14.808C49.3941 14.8603 49.4351 14.9273 49.4562 15.0014C49.4762 15.0713 49.4865 15.1437 49.4868 15.2164C49.4878 15.2981 49.4775 15.3795 49.4562 15.4584C49.4351 15.5327 49.3941 15.5998 49.3376 15.6524C49.2671 15.7147 49.1832 15.7599 49.0925 15.7845C48.9609 15.8198 48.8249 15.836 48.6887 15.8327H47.0461C46.9155 15.8371 46.785 15.8208 46.6594 15.7845C46.5779 15.7595 46.5041 15.714 46.4449 15.6524C46.396 15.5981 46.3641 15.5307 46.353 15.4584C46.3405 15.3783 46.3346 15.2974 46.3353 15.2164V9.22162C46.3346 9.14062 46.3405 9.05969 46.353 8.97965C46.3641 8.90753 46.396 8.84027 46.4449 8.78621C46.504 8.72461 46.5779 8.67916 46.6594 8.65417C46.7849 8.61739 46.9154 8.60101 47.0461 8.60565H48.5131C48.6493 8.60207 48.7854 8.61841 48.9169 8.65417C49.0076 8.67876 49.0915 8.72394 49.162 8.78621C49.2185 8.83856 49.2596 8.90548 49.2806 8.97965C49.3019 9.0585 49.3122 9.13994 49.3112 9.22162C49.311 9.29435 49.3007 9.36667 49.2806 9.43656C49.2597 9.5108 49.2186 9.57776 49.162 9.63001C49.0913 9.69307 49.0077 9.73973 48.9169 9.76666C48.7859 9.80551 48.6496 9.82333 48.5131 9.81947H47.6696V14.6185ZM50.042 9.26553C50.0292 9.15742 50.0394 9.04784 50.0719 8.94396C50.1044 8.84008 50.1584 8.74426 50.2304 8.66277C50.3504 8.55659 50.5054 8.49863 50.6655 8.50003C50.8228 8.49971 50.9747 8.55767 51.092 8.66277C51.164 8.74425 51.2181 8.84007 51.2505 8.94395C51.283 9.04783 51.2932 9.15742 51.2804 9.26553V11.415H52.1077V9.26553C52.095 9.15738 52.1053 9.04776 52.1379 8.94387C52.1704 8.83999 52.2246 8.74419 52.2967 8.66277C52.4165 8.55653 52.5713 8.49855 52.7312 8.50003C52.8885 8.49971 53.0404 8.55767 53.1577 8.66277C53.2297 8.74425 53.2838 8.84007 53.3162 8.94395C53.3487 9.04783 53.3589 9.15742 53.3461 9.26553V15.2787C53.3498 15.407 53.332 15.535 53.2934 15.6573C53.2651 15.7452 53.2189 15.8262 53.1577 15.8953C53.1034 15.9525 53.0353 15.9948 52.9601 16.0181C52.8859 16.041 52.8088 16.0527 52.7312 16.0528C52.651 16.0531 52.5711 16.0414 52.4944 16.0181C52.419 15.9951 52.3509 15.9527 52.2967 15.8953C52.2352 15.8264 52.1887 15.7453 52.1604 15.6573C52.1219 15.535 52.104 15.407 52.1077 15.2787V12.6291H51.2804V15.2787C51.2841 15.407 51.2663 15.535 51.2277 15.6573C51.1994 15.7452 51.1532 15.8262 51.092 15.8953C51.0375 15.9526 50.9693 15.9949 50.8938 16.0181C50.8198 16.041 50.7429 16.0527 50.6655 16.0528C50.5851 16.0531 50.5051 16.0414 50.428 16.0181C50.3528 15.9948 50.2847 15.9525 50.2304 15.8953C50.1693 15.8262 50.123 15.7452 50.0947 15.6573C50.0562 15.535 50.0383 15.407 50.042 15.2787V9.26553Z" fill="white"/>
<path d="M55.1356 12.3652C55.0175 12.368 54.8994 12.3562 54.7842 12.3299C54.7104 12.3133 54.6413 12.2802 54.582 12.2331C54.5358 12.1931 54.5036 12.1393 54.4901 12.0796C54.4743 12.0091 54.4669 11.9369 54.468 11.8647C54.4676 11.8026 54.475 11.7407 54.4901 11.6804C54.5053 11.6199 54.5372 11.565 54.582 11.5217C54.6393 11.4688 54.7088 11.431 54.7842 11.4117C54.8989 11.3818 55.0172 11.3684 55.1356 11.3718H61.5221C61.6404 11.3684 61.7586 11.3819 61.8732 11.4117C61.9487 11.431 62.0182 11.4688 62.0754 11.5217C62.1202 11.565 62.1521 11.62 62.1674 11.6804C62.1824 11.7407 62.1898 11.8026 62.1894 11.8647C62.1906 11.9369 62.1832 12.0091 62.1674 12.0796C62.1538 12.1393 62.1216 12.1931 62.0754 12.2331C62.0161 12.2802 61.947 12.3133 61.8732 12.3299C61.7581 12.3562 61.6401 12.368 61.5221 12.3652H55.1356ZM56.5144 14.9534V15.2789H60.9596C61.095 15.2764 61.2304 15.2883 61.3634 15.3142C61.4505 15.3305 61.5337 15.3633 61.6085 15.4109C61.6631 15.4468 61.7047 15.4993 61.7271 15.5608C61.7483 15.623 61.7586 15.6884 61.7577 15.7542C61.7595 15.8259 61.7491 15.8973 61.7271 15.9655C61.7045 16.0268 61.6629 16.0793 61.6085 16.1153C61.5342 16.1622 61.4505 16.1923 61.3634 16.2034C61.2297 16.223 61.0947 16.232 60.9596 16.2302H55.803C55.673 16.234 55.5431 16.2205 55.4166 16.1902C55.3364 16.1713 55.2625 16.1318 55.2021 16.0757C55.1529 16.0272 55.1207 15.9641 55.1102 15.8958C55.0977 15.82 55.0916 15.7432 55.0921 15.6664V14.5042C55.0922 14.4463 55.0996 14.3888 55.1142 14.3328C55.1299 14.2751 55.1618 14.2231 55.2061 14.183C55.2644 14.1329 55.3334 14.0969 55.4077 14.0777C55.5225 14.048 55.6409 14.0348 55.7595 14.0384H60.143V13.7122H55.7331C55.615 13.7154 55.4971 13.7035 55.382 13.6769C55.3073 13.6604 55.2378 13.6256 55.1798 13.5756C55.1338 13.5332 55.1018 13.4779 55.0878 13.4169C55.0726 13.352 55.0652 13.2855 55.0658 13.2188C55.0658 13.1595 55.0732 13.1003 55.0878 13.0429C55.1038 12.9815 55.1355 12.9254 55.1798 12.8801C55.2364 12.8245 55.3059 12.7837 55.382 12.7613C55.496 12.7284 55.6145 12.7136 55.7331 12.7174H60.89C61.0071 12.7142 61.1239 12.729 61.2365 12.7613C61.3131 12.783 61.3837 12.822 61.4427 12.8755C61.4876 12.9195 61.5208 12.9741 61.5393 13.0343C61.5568 13.0913 61.5658 13.1506 61.5659 13.2102V14.5223C61.57 14.582 61.5607 14.6418 61.5387 14.6975C61.5167 14.7531 61.4825 14.8031 61.4388 14.8438C61.2717 14.9367 61.0799 14.9751 60.89 14.9537L56.5144 14.9534ZM55.8204 10.9923C55.6894 10.9972 55.5586 10.9792 55.4338 10.9392C55.3539 10.9135 55.2826 10.8665 55.2276 10.8031C55.1829 10.7456 55.1541 10.6773 55.1439 10.6051C55.132 10.5238 55.1262 10.4416 55.1265 10.3594V9.21318C55.126 9.13219 55.1318 9.05129 55.1439 8.97121C55.1554 8.8994 55.1841 8.83144 55.2276 8.77316C55.2811 8.708 55.353 8.66041 55.4338 8.63652C55.5593 8.60032 55.6898 8.58415 55.8204 8.58861H60.7135C60.832 8.58534 60.9504 8.59858 61.0653 8.62793C61.1404 8.64744 61.2097 8.68518 61.2669 8.73784C61.3121 8.78261 61.344 8.83921 61.3588 8.90121C61.3741 8.96901 61.3815 9.03835 61.3808 9.10786C61.381 9.16994 61.3736 9.23181 61.3588 9.2921C61.3432 9.35245 61.3114 9.40737 61.2669 9.45085C61.2094 9.50403 61.1404 9.54303 61.0653 9.56477C60.951 9.59768 60.8323 9.6125 60.7135 9.60868H56.5496V9.97008H60.7135C60.8323 9.96627 60.951 9.98109 61.0653 10.014C61.1412 10.0364 61.2105 10.0772 61.2669 10.1328C61.3116 10.1796 61.3433 10.2373 61.3588 10.3002C61.3731 10.3593 61.3805 10.4199 61.3808 10.4807C61.3815 10.5502 61.3741 10.6196 61.3588 10.6874C61.3446 10.7483 61.3126 10.8035 61.2669 10.8461C61.2087 10.8964 61.1397 10.9324 61.0653 10.9515C60.9505 10.9813 60.8321 10.9948 60.7135 10.9914L55.8204 10.9923Z" fill="white"/>
<path d="M62.8233 15.3494C62.8226 15.2677 62.8329 15.1864 62.8539 15.1075C62.8749 15.033 62.9161 14.9659 62.9728 14.9134C63.0433 14.8511 63.1272 14.8059 63.2179 14.7813C63.3495 14.746 63.4855 14.7298 63.6217 14.7331H67.1358C67.272 14.7298 67.408 14.746 67.5396 14.7813C67.6303 14.8059 67.7142 14.8511 67.7847 14.9134C67.8414 14.9659 67.8824 15.033 67.9033 15.1075C67.9246 15.1863 67.9349 15.2677 67.9339 15.3494C67.9337 15.4221 67.9234 15.4945 67.9033 15.5644C67.8824 15.6388 67.8414 15.7059 67.7847 15.7584C67.7138 15.8212 67.6302 15.8679 67.5396 15.8951C67.4086 15.9339 67.2723 15.9517 67.1358 15.9479H63.6223C63.4858 15.9517 63.3495 15.9339 63.2185 15.8951C63.1279 15.8679 63.0443 15.8212 62.9734 15.7584C62.9167 15.7059 62.8756 15.6388 62.8545 15.5644C62.8344 15.4945 62.8239 15.4222 62.8233 15.3494ZM65.2744 8.52619C65.8214 8.49157 66.3626 8.65588 66.7984 8.98894C66.985 9.15948 67.1347 9.3666 67.2381 9.59747C67.3416 9.82834 67.3966 10.078 67.3999 10.3311C67.4056 10.4075 67.4084 10.5146 67.4084 10.6526V11.5154C67.4084 11.6533 67.4057 11.7611 67.3999 11.8369C67.4127 12.0875 67.3678 12.3377 67.2689 12.5682C67.1699 12.7986 67.0194 13.0032 66.8291 13.1662C66.3756 13.4852 65.8274 13.6404 65.2744 13.6062C64.722 13.6456 64.1736 13.4866 63.7274 13.1576C63.5447 12.9899 63.3988 12.7859 63.299 12.5586C63.1993 12.3312 63.1479 12.0856 63.1481 11.8372C63.1422 11.7614 63.1376 11.653 63.1349 11.5158C63.1321 11.3785 63.1309 11.2345 63.1309 11.0859C63.1309 10.9372 63.1309 10.7929 63.1349 10.656C63.1389 10.519 63.1425 10.4103 63.1481 10.3345C63.1454 10.0837 63.1943 9.8351 63.2918 9.60417C63.3894 9.37323 63.5334 9.16494 63.7149 8.99231C64.1603 8.6512 64.715 8.48548 65.2741 8.5265L65.2744 8.52619ZM65.977 10.2958C65.9818 10.1896 65.9526 10.0847 65.8936 9.9964C65.8421 9.92429 65.7742 9.86556 65.6954 9.82506C65.6223 9.78778 65.5437 9.76257 65.4625 9.75045C65.4003 9.73994 65.3373 9.73399 65.2741 9.73264C65.2123 9.73454 65.1508 9.74194 65.0903 9.75475C65.0104 9.77094 64.9334 9.79921 64.862 9.83858C64.783 9.88223 64.7153 9.94386 64.6644 10.0185C64.6052 10.1088 64.5732 10.2144 64.5725 10.3225C64.5667 10.4048 64.5621 10.5166 64.5599 10.6572C64.5578 10.7978 64.5553 10.9431 64.5553 11.0926C64.5553 11.2422 64.5553 11.3849 64.5599 11.52C64.5645 11.6552 64.567 11.7608 64.5725 11.8366C64.5659 11.9465 64.5935 12.0558 64.6515 12.1492C64.702 12.2207 64.7682 12.2796 64.8452 12.3212C64.917 12.3609 64.9959 12.3863 65.0774 12.3958C65.1432 12.4037 65.2094 12.4081 65.2756 12.409C65.3371 12.4079 65.3985 12.4035 65.4595 12.3958C65.5396 12.3857 65.6171 12.3604 65.6877 12.3212C65.7653 12.2789 65.8328 12.2202 65.8854 12.1492C65.9468 12.0567 65.9788 11.9477 65.9773 11.8366C65.9831 11.7543 65.9859 11.6432 65.9859 11.5019V10.6265C65.9853 10.4886 65.9825 10.3781 65.9764 10.2958H65.977ZM68.5773 9.2656C68.5639 9.15534 68.5762 9.04344 68.6135 8.9388C68.6507 8.83417 68.7118 8.73968 68.7918 8.66283C68.9345 8.55466 69.1092 8.49738 69.2882 8.50009C69.3787 8.49957 69.4689 8.51145 69.5563 8.5354C69.6397 8.55788 69.7166 8.59999 69.7805 8.65822C69.8499 8.72501 69.9038 8.80626 69.9383 8.8962C69.9824 9.0139 70.0032 9.13903 69.9996 9.26467V15.2779C70.0038 15.4069 69.983 15.5354 69.9383 15.6565C69.9038 15.7464 69.8499 15.8277 69.7805 15.8944C69.7164 15.9524 69.6396 15.9945 69.5563 16.0173C69.3805 16.0636 69.1958 16.0636 69.0201 16.0173C68.931 15.9933 68.8492 15.9479 68.7818 15.8848C68.7144 15.8218 68.6634 15.7432 68.6334 15.6559C68.5919 15.5341 68.5727 15.4059 68.5767 15.2773L68.5773 9.2656Z" fill="white"/>
<path d="M31.5674 20.8081C31.8488 20.802 32.1293 20.8421 32.3977 20.9269C32.6127 20.9961 32.8083 21.1153 32.9685 21.2748C33.1232 21.4365 33.2402 21.6305 33.3111 21.8429C33.3946 22.0916 33.4434 22.3508 33.456 22.613C33.456 22.6658 33.456 22.7908 33.4606 22.987C33.4652 23.1832 33.4646 23.4169 33.4646 23.6871C33.4646 23.9573 33.4646 24.2447 33.4692 24.5499C33.4738 24.8551 33.4719 25.1429 33.4692 25.4128C33.4664 25.6827 33.4633 25.916 33.4606 26.1129C33.4578 26.3097 33.456 26.4313 33.456 26.4783C33.4826 26.9641 33.3188 27.4411 32.9995 27.8075C32.7059 28.1011 32.2285 28.2478 31.5671 28.2476C31.2774 28.2546 30.9884 28.216 30.7107 28.133C30.4973 28.0681 30.3027 27.9522 30.1439 27.7953C29.9929 27.6384 29.8801 27.4486 29.8145 27.2407C29.7361 26.9939 29.6903 26.7379 29.6782 26.4792C29.6723 26.4264 29.6696 26.3014 29.6696 26.1052C29.6696 25.909 29.6678 25.6753 29.665 25.4051C29.6622 25.1349 29.661 24.8475 29.661 24.5422C29.661 24.237 29.661 23.9493 29.665 23.6794C29.669 23.4095 29.6696 23.1774 29.6696 22.9839C29.6696 22.7905 29.6723 22.6667 29.6782 22.6154C29.6901 22.3527 29.7344 22.0925 29.8099 21.8407C29.8731 21.6301 29.9845 21.4371 30.1353 21.2773C30.2933 21.1172 30.4876 20.9979 30.7015 20.9294C30.9817 20.8421 31.2741 20.8012 31.5674 20.8081ZM32.0331 22.5777C32.0363 22.4761 32.0215 22.3747 31.9893 22.2783C31.9666 22.2122 31.9272 22.1532 31.875 22.1069C31.8306 22.0701 31.7781 22.0443 31.7218 22.0317C31.6715 22.0207 31.6201 22.0148 31.5686 22.0142C31.5181 22.0149 31.4679 22.0223 31.4194 22.0363C31.3649 22.0522 31.3151 22.0808 31.2739 22.1198C31.2234 22.1711 31.1845 22.2327 31.1599 22.3004C31.1239 22.3978 31.1046 22.5006 31.1026 22.6044C31.1026 22.6572 31.1026 22.7834 31.098 22.983C31.0934 23.1826 31.0922 23.4172 31.0894 23.6871C31.0867 23.957 31.0854 24.2447 31.0854 24.5499C31.0854 24.8551 31.0854 25.1429 31.0894 25.4128C31.0934 25.6827 31.094 25.916 31.094 26.1129C31.094 26.3097 31.0968 26.4313 31.1026 26.4783C31.0981 26.5843 31.1129 26.6902 31.1464 26.7909C31.1701 26.8553 31.2076 26.9137 31.2561 26.9622C31.2971 27.0019 31.3493 27.0279 31.4056 27.0368C31.4593 27.0457 31.5136 27.0501 31.568 27.05C31.6179 27.05 31.6677 27.0455 31.7169 27.0368C31.7716 27.0271 31.8221 27.0011 31.8618 26.9622C31.9109 26.9133 31.9498 26.855 31.9761 26.7909C32.0134 26.6908 32.0328 26.585 32.0334 26.4783C32.0334 26.4257 32.0347 26.2995 32.0374 26.0997C32.0401 25.9004 32.042 25.6636 32.042 25.391V23.6567C32.042 23.384 32.0405 23.1491 32.0374 22.952C32.034 22.7551 32.0331 22.6302 32.0331 22.5774V22.5777ZM35.1605 21.5475C35.147 21.4372 35.1594 21.3253 35.1966 21.2207C35.2339 21.1161 35.2949 21.0216 35.3749 20.9447C35.5174 20.836 35.6922 20.7785 35.8713 20.7814C35.9618 20.7811 36.052 20.793 36.1394 20.8167C36.2226 20.8393 36.2992 20.8814 36.363 20.9395C36.4332 21.0057 36.4874 21.0871 36.5214 21.1775C36.5655 21.2952 36.5863 21.4203 36.5827 21.5459V27.5591C36.5868 27.6881 36.566 27.8167 36.5214 27.9377C36.4872 28.0278 36.4331 28.109 36.363 28.1751C36.2995 28.2336 36.2228 28.2757 36.1394 28.2979C35.9637 28.345 35.7788 28.345 35.6032 28.2979C35.5187 28.2752 35.4405 28.2331 35.3749 28.1751C35.3034 28.1104 35.2492 28.0288 35.2171 27.9377C35.1753 27.8161 35.1558 27.6878 35.1598 27.5591L35.1605 21.5475Z" fill="white"/>
<path d="M48.268 20.8081C48.5479 20.8016 48.827 20.8418 49.0938 20.9269C49.3062 20.9961 49.499 21.1154 49.656 21.2748C49.8082 21.4368 49.9223 21.6309 49.99 21.8429C50.0705 22.0922 50.1179 22.3512 50.1309 22.613C50.1309 22.6658 50.1309 22.7908 50.1349 22.987C50.1389 23.1832 50.1395 23.4169 50.1395 23.6871C50.1395 23.9573 50.1395 24.2447 50.1435 24.5499C50.1474 24.8551 50.1462 25.1429 50.1435 25.4128C50.1407 25.6827 50.1376 25.916 50.1349 26.1129C50.1321 26.3097 50.1309 26.4313 50.1309 26.4783C50.1571 26.9618 49.9984 27.4371 49.6872 27.8075C49.4029 28.1011 48.9299 28.2478 48.2683 28.2476C47.9801 28.2548 47.6924 28.2162 47.4163 28.133C47.2056 28.068 47.0141 27.952 46.8586 27.7953C46.7103 27.6378 46.6004 27.448 46.5378 27.2407C46.4625 26.9933 46.4182 26.7375 46.4061 26.4792C46.4003 26.4264 46.3975 26.3014 46.3975 26.1052C46.3975 25.909 46.3957 25.6753 46.3929 25.4051C46.3901 25.1349 46.3883 24.8475 46.3883 24.5422C46.3883 24.237 46.3901 23.9493 46.3929 23.6794C46.3957 23.4095 46.3975 23.1774 46.3975 22.9839C46.3975 22.7905 46.4003 22.6667 46.4061 22.6154C46.4184 22.3531 46.4611 22.0931 46.5332 21.8407C46.5931 21.6306 46.7016 21.4376 46.8497 21.2772C47.0045 21.1174 47.1959 20.9979 47.4074 20.9293C47.6857 20.8419 47.9764 20.801 48.268 20.8081ZM48.7071 22.5777C48.7104 22.4764 48.6971 22.3753 48.6679 22.2783C48.6482 22.2129 48.6118 22.1538 48.5622 22.1069C48.521 22.0702 48.4714 22.0444 48.4179 22.0317C48.3688 22.0205 48.3187 22.0147 48.2683 22.0142C48.2192 22.0147 48.1704 22.0221 48.1234 22.0363C48.0718 22.0525 48.025 22.0812 47.9871 22.1198C47.94 22.1721 47.9043 22.2336 47.882 22.3004C47.8492 22.3985 47.8314 22.501 47.8293 22.6044C47.8236 22.657 47.8207 22.7832 47.8207 22.983C47.8207 23.1823 47.8189 23.4172 47.8161 23.6871C47.8133 23.957 47.8115 24.2447 47.8115 24.5499C47.8115 24.8551 47.8133 25.1429 47.8161 25.4128C47.8189 25.6827 47.8207 25.916 47.8207 26.1129C47.8207 26.3097 47.8234 26.4313 47.8293 26.4783C47.8252 26.584 47.8387 26.6896 47.8691 26.7909C47.8896 26.8547 47.9239 26.9132 47.9696 26.9622C48.0074 27.0016 48.0568 27.0278 48.1105 27.0368C48.1627 27.0458 48.2155 27.0502 48.2683 27.05C48.3169 27.0501 48.3655 27.0457 48.4133 27.0368C48.4654 27.0269 48.5131 27.0008 48.5496 26.9622C48.5956 26.9126 48.6313 26.8544 48.6547 26.7909C48.689 26.6902 48.7068 26.5846 48.7074 26.4783C48.7074 26.4257 48.7089 26.2995 48.712 26.0997C48.7147 25.9004 48.7166 25.6636 48.7166 25.391V23.6567C48.7166 23.384 48.7151 23.1491 48.712 22.952C48.7077 22.7551 48.7059 22.6302 48.7059 22.5774L48.7071 22.5777ZM51.2465 21.5475C51.233 21.4372 51.2454 21.3253 51.2826 21.2207C51.3199 21.1161 51.3809 21.0216 51.4609 20.9447C51.6035 20.8361 51.7783 20.7786 51.9573 20.7813C52.0478 20.7811 52.138 20.793 52.2254 20.8167C52.3087 20.8395 52.3855 20.8816 52.4497 20.9395C52.5193 21.0061 52.5732 21.0874 52.6075 21.1775C52.6515 21.2951 52.6723 21.4203 52.6687 21.5459V22.3913H53.2221C53.3586 22.3875 53.4949 22.4053 53.6259 22.4441C53.7166 22.4712 53.8002 22.5178 53.871 22.5807C53.9273 22.6332 53.9683 22.7001 53.9896 22.7742C54.0094 22.8441 54.0197 22.9164 54.0202 22.9891C54.0209 23.0708 54.0106 23.1522 53.9896 23.2311C53.9684 23.3053 53.9274 23.3724 53.871 23.4252C53.8004 23.4873 53.7166 23.5325 53.6259 23.5572C53.4943 23.5924 53.3583 23.6087 53.2221 23.6054H52.6687V25.1287H53.2221C53.3586 25.1249 53.4949 25.1428 53.6259 25.1815C53.7166 25.2087 53.8002 25.2553 53.871 25.3182C53.9275 25.3706 53.9685 25.4375 53.9896 25.5116C54.0094 25.5816 54.0197 25.6539 54.0202 25.7266C54.021 25.8083 54.0107 25.8896 53.9896 25.9685C53.9686 26.0429 53.9276 26.1101 53.871 26.1626C53.8007 26.2252 53.7168 26.2704 53.6259 26.2946C53.4944 26.3303 53.3583 26.3467 53.2221 26.3432H52.6687V27.5579C52.6728 27.6869 52.652 27.8154 52.6075 27.9365C52.573 28.0263 52.5191 28.1074 52.4497 28.1739C52.3858 28.2322 52.3089 28.2743 52.2254 28.2967C52.05 28.3438 51.8653 28.3438 51.6898 28.2967C51.6051 28.2741 51.5267 28.232 51.4609 28.1739C51.3894 28.109 51.335 28.0275 51.3025 27.9365C51.2612 27.8147 51.242 27.6865 51.2459 27.5579L51.2465 21.5475Z" fill="white"/>
<path d="M65.6954 20.8873C65.8198 20.8829 65.944 20.8992 66.0631 20.9355C66.1409 20.9613 66.2106 21.007 66.2653 21.0681C66.3135 21.1273 66.344 21.199 66.3532 21.2748C66.3656 21.3682 66.3714 21.4624 66.3707 21.5567V25.0077C66.3707 25.1252 66.3618 25.2719 66.3441 25.4478C66.3266 25.6237 66.2972 25.8162 66.2561 26.0198C66.2134 26.2339 66.1592 26.4456 66.0937 26.6539C66.0283 26.8661 65.9447 27.0722 65.8437 27.2699C65.7479 27.4583 65.6314 27.6354 65.4966 27.798C65.3721 27.9501 65.2183 28.0754 65.0443 28.1665C64.9727 28.2086 64.8931 28.2351 64.8105 28.2442C64.728 28.2533 64.6445 28.2448 64.5654 28.2193C64.4306 28.1719 64.3087 28.0936 64.2094 27.9905C64.1509 27.9373 64.1084 27.8687 64.0869 27.7925C64.0631 27.7112 64.054 27.6264 64.0602 27.5419C64.0668 27.4501 64.0861 27.3597 64.1175 27.2732C64.1486 27.1843 64.1916 27.1 64.2453 27.0227C64.3738 26.8425 64.4881 26.6526 64.5872 26.4546C64.6725 26.2828 64.7403 26.1027 64.7894 25.9173C64.8375 25.7312 64.87 25.5413 64.8865 25.3498C64.9039 25.15 64.9126 24.9269 64.9126 24.6804V22.1011H63.3313C63.1951 22.1047 63.059 22.0883 62.9275 22.0526C62.8366 22.0284 62.7526 21.9831 62.6824 21.9205C62.6257 21.8683 62.5847 21.8013 62.5638 21.7271C62.5425 21.6482 62.5322 21.5668 62.5331 21.4851C62.5334 21.4124 62.5437 21.3401 62.5638 21.2702C62.5848 21.196 62.6258 21.1291 62.6824 21.0767C62.7531 21.0138 62.8368 20.9672 62.9275 20.9401C63.0585 20.9012 63.1948 20.8834 63.3313 20.8873H65.6954ZM68.4189 21.5475C68.4055 21.4372 68.4179 21.3253 68.4551 21.2207C68.4923 21.1161 68.5534 21.0216 68.6334 20.9447C68.776 20.8362 68.9508 20.7787 69.1298 20.7813C69.2203 20.7811 69.3105 20.793 69.3979 20.8166C69.4812 20.8394 69.558 20.8815 69.6221 20.9395C69.6919 21.006 69.7461 21.0873 69.7806 21.1775C69.8243 21.2952 69.8451 21.4203 69.8418 21.5459V27.5591C69.8456 27.6881 69.8248 27.8166 69.7806 27.9377C69.7459 28.0276 69.6918 28.1087 69.6221 28.1751C69.5583 28.2335 69.4814 28.2756 69.3979 28.2979C69.2224 28.345 69.0377 28.345 68.8623 28.2979C68.7733 28.2742 68.6914 28.2289 68.624 28.1659C68.5565 28.103 68.5056 28.0244 68.4756 27.9371C68.434 27.8154 68.4146 27.6871 68.4183 27.5585L68.4189 21.5475Z" fill="white"/>
</svg>
